<svg width="24" height="24" viewBox="0 0 24 24" fill="none" xmlns="http://www.w3.org/2000/svg">
<path d="M14.0397 5.46074C15.3981 4.10242 17.6012 4.10259 18.9597 5.46074C20.3181 6.81915 20.3181 9.02225 18.9597 10.3807L11.4597 17.8807C11.3797 17.9606 11.2797 18.0179 11.1706 18.0477L5.67059 19.5477C5.44565 19.6089 5.20459 19.5455 5.03973 19.3807C4.87501 19.2157 4.81143 18.9747 4.87274 18.7498L6.37274 13.2498L6.40008 13.1697C6.43261 13.092 6.4798 13.0207 6.53973 12.9607L14.0397 5.46074ZM6.42547 17.9939L9.74676 17.0877L7.33172 14.6727L6.42547 17.9939ZM18.0397 6.38066C17.189 5.5302 15.8103 5.53002 14.9597 6.38066L7.91961 13.4207L10.9997 16.5008L18.0397 9.46074C18.8905 8.61001 18.8905 7.23139 18.0397 6.38066ZM7.19696 4.00468C7.51537 4.00468 7.77411 4.26342 7.77411 4.58183C7.77436 5.24259 8.31055 5.77812 8.97137 5.77812C9.28941 5.77841 9.54732 6.03624 9.54754 6.35429C9.54754 6.67253 9.28954 6.93115 8.97137 6.93144C8.31039 6.93144 7.77411 7.46773 7.77411 8.12871L7.76239 8.24492C7.70838 8.50732 7.47535 8.70488 7.19696 8.70488C6.9188 8.70463 6.68647 8.50716 6.6325 8.24492L6.62078 8.12871L6.61493 8.00566C6.55356 7.40237 6.04393 6.93162 5.4245 6.93144C5.10608 6.93144 4.84735 6.67271 4.84735 6.35429C4.84754 6.07581 5.04562 5.84352 5.30828 5.78984L5.4245 5.77812L5.54657 5.77226C6.14989 5.71098 6.62054 5.20127 6.62078 4.58183C6.62078 4.26359 6.87879 4.00497 7.19696 4.00468Z" fill="#0D1625"/>
</svg>
