<svg width="24" height="24" viewBox="0 0 24 24" fill="none" xmlns="http://www.w3.org/2000/svg">
<path d="M12 3.21973C16.8487 3.21998 20.78 7.15131 20.7803 12C20.7802 13.128 20.5657 14.2084 20.1768 15.2012C19.9631 14.6481 19.497 14.2222 18.918 14.0664C19.0426 13.6453 19.1309 13.2078 19.1777 12.7578C19.1206 12.7712 19.0611 12.7802 19 12.7803H15.7471C15.6547 14.0358 15.353 15.3724 14.8945 16.6152C14.5842 17.4563 14.1947 18.2735 13.7402 19.0068C14.1839 18.8972 14.6114 18.7464 15.0186 18.5596C15.3198 19.1002 15.8797 19.4753 16.5322 19.5186C16.4956 19.5407 16.4598 19.5644 16.4229 19.5859C15.1235 20.3449 13.6111 20.7802 12 20.7803C7.15131 20.78 3.21998 16.8487 3.21973 12C3.21998 7.15131 7.15131 3.21997 12 3.21973ZM4.81934 12.7578C5.13724 15.8038 7.34963 18.2849 10.2568 19.0059C9.80297 18.2731 9.41551 17.4554 9.10547 16.6152C8.64701 15.3725 8.3443 14.0357 8.25195 12.7803H5C4.93806 12.7802 4.87711 12.7715 4.81934 12.7578ZM9.81641 12.7803C9.90623 13.8375 10.1679 14.9869 10.5693 16.0752C10.9506 17.1084 11.4434 18.0533 11.999 18.7979C12.555 18.0531 13.0492 17.109 13.4307 16.0752C13.8322 14.9868 14.0928 13.8376 14.1826 12.7803H9.81641ZM10.2568 4.99219C7.34986 5.71284 5.13779 8.19472 4.81934 11.2402C4.87704 11.2266 4.93814 11.2198 5 11.2197H8.25195C8.34426 9.96409 8.64689 8.62777 9.10547 7.38477C9.41571 6.54396 9.80258 5.72533 10.2568 4.99219ZM13.7412 4.99219C14.1955 5.72536 14.5842 6.54389 14.8945 7.38477C15.353 8.62766 15.6548 9.96421 15.7471 11.2197H19C19.0613 11.2198 19.1215 11.2268 19.1787 11.2402C18.8601 8.19436 16.6488 5.71242 13.7412 4.99219ZM11.999 5.2002C11.4429 5.94499 10.9508 6.89091 10.5693 7.9248C10.1677 9.01334 9.9062 10.1622 9.81641 11.2197H14.1826C14.0928 10.1623 13.8322 9.01322 13.4307 7.9248C13.0491 6.8908 12.5552 5.94499 11.999 5.2002Z" fill="#0D1625"/>
<path d="M17.8547 19.4251L17.8486 19.3021C17.7873 18.6987 17.2772 18.2281 16.6576 18.2281C16.3392 18.2281 16.0807 17.9696 16.0807 17.6512C16.0808 17.3726 16.2788 17.1401 16.5415 17.0864L16.6576 17.0751L16.7797 17.0691C17.3834 17.0079 17.8547 16.4978 17.8547 15.8781C17.8547 15.5597 18.1124 15.3013 18.4307 15.3012C18.7491 15.3012 19.0076 15.5596 19.0076 15.8781C19.0076 16.539 19.5437 17.0751 20.2047 17.0751C20.5229 17.0754 20.7806 17.333 20.7807 17.6512C20.7807 17.9694 20.5229 18.2278 20.2047 18.2281C19.5437 18.2281 19.0076 18.7642 19.0076 19.4251L18.9955 19.5412C18.9416 19.8038 18.7092 20.0012 18.4307 20.0012C18.1523 20.0011 17.9198 19.8037 17.866 19.5412L17.8547 19.4251Z" fill="#0D1625"/>
</svg>
